<?xml version="1.0" standalone="no"?>
<!DOCTYPE svg PUBLIC "-//W3C//DTD SVG 20010904//EN"
 "http://www.w3.org/TR/2001/REC-SVG-20010904/DTD/svg10.dtd">
<svg version="1.0" xmlns="http://www.w3.org/2000/svg"
 width="4000.000000pt" height="3000.000000pt" viewBox="0 0 4000.000000 3000.000000"
 preserveAspectRatio="xMidYMid meet">
<metadata>
Created by potrace 1.15, written by Peter Selinger 2001-2017
</metadata>
<g transform="translate(0.000000,3000.000000) scale(0.100000,-0.100000)"
fill="#000000" stroke="none">
<path d="M35730 20800 c-52 -4 -135 -17 -185 -29 -102 -26 -280 -108 -372
-173 -483 -340 -890 -1058 -1122 -1984 -112 -446 -192 -899 -256 -1444 -28
-245 -65 -658 -65 -740 l-1 -55 -37 70 c-71 134 -186 231 -301 256 -118 25
-367 -28 -546 -116 -236 -117 -462 -327 -682 -635 -293 -407 -524 -1016 -574
-1510 -25 -255 -215 -770 -410 -1113 -125 -219 -269 -408 -435 -567 -227 -218
-436 -320 -657 -320 -169 0 -305 60 -441 194 -269 266 -411 708 -451 1404 l-7
113 49 -25 c53 -28 195 -56 282 -56 153 0 352 73 492 179 368 279 659 882 719
1490 35 353 -27 738 -154 964 -106 188 -302 341 -514 399 -64 18 -105 22 -247
22 -251 1 -425 -36 -624 -130 -180 -85 -268 -149 -436 -318 -211 -212 -342
-405 -460 -680 -205 -474 -292 -984 -265 -1558 33 -714 144 -1236 360 -1685
260 -542 614 -902 1010 -1028 136 -43 220 -55 378 -55 281 0 540 83 796 255
131 87 196 142 344 288 290 286 523 678 696 1168 l42 120 34 -88 c145 -385
342 -584 659 -664 42 -10 113 -22 158 -25 79 -7 86 -5 146 24 118 58 265 238
415 507 133 238 351 729 533 1199 117 304 113 300 124 136 16 -248 70 -650
121 -910 193 -968 603 -1759 1079 -2080 194 -131 419 -201 595 -185 320 28
595 179 915 499 315 315 576 696 816 1191 340 702 460 1319 306 1577 -46 76
-137 130 -137 80 0 -35 -70 -294 -126 -463 -86 -262 -183 -499 -309 -754 -261
-528 -559 -944 -830 -1161 -140 -113 -334 -197 -455 -198 -215 -1 -396 305
-560 947 -45 177 -120 542 -120 586 0 12 29 35 86 70 478 292 913 936 1309
1935 410 1038 639 2146 639 3106 1 574 -74 974 -249 1338 -80 166 -145 261
-246 357 -170 162 -377 255 -606 271 -43 3 -89 6 -103 8 -14 1 -68 -1 -120 -4z
m455 -538 c186 -88 306 -297 380 -665 135 -677 79 -1575 -157 -2512 -200 -794
-544 -1612 -885 -2103 -152 -218 -351 -442 -503 -565 l-75 -60 -8 54 c-14 99
-20 1539 -8 1892 49 1433 169 2368 397 3105 153 493 347 788 574 872 82 30
196 23 285 -18z m-6129 -4083 c115 -55 177 -197 176 -404 0 -180 -46 -354
-151 -570 -196 -401 -513 -713 -806 -791 -91 -25 -88 -28 -80 84 32 476 135
902 295 1227 101 207 191 331 296 412 81 62 194 79 270 42z m3378 -289 c29
-11 91 -43 137 -70 45 -28 84 -50 87 -50 3 0 14 7 24 17 10 9 18 12 18 6 0
-31 -232 -777 -350 -1128 -204 -600 -359 -974 -434 -1044 -32 -30 -62 -23
-115 27 -68 64 -128 222 -166 432 -26 146 -31 448 -11 590 65 443 300 977 505
1149 105 88 200 110 305 71z"/>
<path d="M14460 20376 c-248 -44 -465 -163 -630 -343 -214 -236 -415 -665
-544 -1164 -110 -427 -187 -1048 -238 -1914 -17 -287 -17 -1381 0 -1635 7
-102 19 -268 28 -370 l16 -185 -56 -180 c-166 -538 -286 -855 -451 -1190 -160
-325 -280 -503 -447 -661 -117 -111 -276 -194 -370 -194 l-29 0 49 58 c96 112
171 238 256 433 314 723 467 1762 356 2416 -66 385 -200 683 -379 844 -164
148 -410 229 -655 216 -221 -11 -409 -119 -656 -373 -249 -257 -443 -535 -630
-904 -149 -296 -277 -595 -396 -927 -32 -89 -60 -161 -61 -159 -13 12 269
1158 411 1672 251 911 366 1547 366 2023 0 703 -244 1369 -558 1523 -58 29
-77 33 -142 33 -93 -1 -133 -20 -211 -101 -161 -170 -280 -509 -338 -959 -43
-337 -57 -623 -66 -1340 -3 -253 -12 -586 -20 -740 -48 -922 -61 -1340 -71
-2330 -7 -674 -4 -741 36 -849 56 -150 170 -238 274 -212 73 18 196 259 631
1236 259 581 352 777 518 1085 214 397 357 565 485 565 126 0 261 -99 332
-244 137 -281 172 -723 104 -1316 -45 -395 -162 -838 -289 -1095 -64 -129
-110 -194 -167 -235 -51 -37 -84 -38 -169 -5 -314 125 -704 120 -959 -11 -98
-50 -154 -94 -233 -183 -225 -252 -235 -534 -27 -755 181 -193 395 -283 820
-346 120 -18 531 -24 723 -11 259 18 418 64 634 184 344 189 695 573 1022
1115 174 290 350 683 446 997 26 85 35 104 39 85 3 -14 29 -128 56 -253 122
-548 254 -948 435 -1322 214 -439 436 -701 689 -809 181 -77 491 -25 760 129
450 256 946 894 1311 1685 37 80 72 156 78 170 9 23 10 23 14 5 37 -178 122
-465 188 -630 116 -291 313 -601 514 -808 205 -212 391 -326 641 -394 130 -35
373 -44 518 -18 392 70 787 329 1106 725 245 304 456 742 613 1270 47 161 143
537 143 565 0 5 21 -11 48 -36 105 -102 308 -260 482 -376 189 -126 282 -180
627 -367 452 -244 858 -546 1012 -754 126 -171 205 -376 230 -599 18 -166 -28
-540 -95 -763 -44 -147 -136 -335 -214 -439 -108 -142 -290 -291 -455 -371
-147 -71 -213 -84 -393 -77 -313 12 -587 95 -768 231 -174 131 -320 350 -380
571 -16 57 -19 103 -18 255 0 166 3 195 27 282 48 182 143 351 272 487 164
172 375 263 620 265 104 1 114 -1 178 -31 160 -76 259 -234 283 -452 l7 -63
48 5 c109 13 204 84 257 192 52 105 65 168 59 275 -15 245 -106 448 -257 574
-62 51 -269 152 -362 175 -147 38 -340 36 -568 -3 -289 -51 -561 -191 -712
-368 -180 -210 -285 -428 -340 -700 -32 -159 -32 -486 0 -660 65 -354 214
-693 415 -943 62 -77 194 -210 277 -279 440 -369 1011 -487 1685 -351 552 112
1015 377 1343 770 135 162 252 359 313 529 13 36 26 66 29 66 3 0 23 -55 44
-122 65 -201 200 -453 329 -613 62 -77 194 -210 277 -279 440 -369 1011 -487
1685 -351 633 128 1160 467 1478 950 365 555 411 1345 110 1917 -63 119 -143
223 -275 356 -264 267 -549 478 -951 706 -493 280 -902 567 -1098 773 -193
203 -296 436 -324 738 -17 180 55 440 167 602 84 123 255 271 390 337 201 99
373 78 521 -63 101 -96 166 -228 204 -420 25 -120 24 -474 0 -616 -33 -192
-89 -347 -166 -458 l-31 -45 20 -25 c38 -48 117 -61 385 -61 271 -1 378 12
547 68 129 43 197 86 293 181 89 88 150 194 183 315 26 98 23 349 -6 495 -58
293 -179 530 -364 712 -101 100 -136 128 -259 209 -196 129 -443 230 -692 281
-124 26 -148 27 -397 28 -293 0 -349 -6 -555 -61 -323 -87 -622 -240 -853
-438 -299 -258 -493 -581 -567 -950 -97 -484 -9 -874 268 -1189 92 -104 322
-290 537 -434 189 -126 282 -180 627 -367 452 -244 858 -546 1012 -754 126
-171 205 -376 230 -599 18 -166 -28 -540 -95 -763 -44 -147 -136 -335 -214
-439 -108 -142 -290 -291 -455 -371 -147 -71 -213 -84 -393 -77 -313 12 -587
95 -768 231 -174 131 -320 350 -380 571 -16 57 -19 103 -18 255 0 166 3 195
27 282 48 182 143 351 272 487 164 172 375 263 620 265 104 1 114 -1 178 -31
160 -76 259 -234 283 -452 l7 -63 48 5 c65 8 146 48 191 94 43 44 89 132 113
218 34 117 -3 361 -79 518 -67 139 -155 221 -331 308 -193 95 -334 120 -560
100 -255 -23 -413 -63 -590 -150 -231 -115 -401 -288 -532 -546 -26 -52 -50
-95 -53 -95 -3 0 -18 41 -34 91 -38 122 -132 306 -206 404 -117 155 -381 402
-618 577 -144 106 -294 202 -505 322 -493 280 -902 567 -1098 773 -193 203
-296 436 -324 738 -17 180 55 440 167 602 84 123 255 271 390 337 201 99 373
78 521 -63 101 -96 166 -228 204 -420 25 -120 24 -474 0 -616 -33 -192 -89
-347 -165 -458 -29 -41 -30 -46 -16 -66 9 -12 32 -28 52 -37 96 -40 509 -43
708 -5 124 23 256 68 332 112 31 19 93 70 137 114 89 88 150 194 183 315 26
98 23 349 -6 495 -58 293 -179 530 -364 712 -101 100 -136 128 -259 209 -196
129 -443 230 -692 281 -124 26 -148 27 -397 28 -293 0 -349 -6 -553 -61 -326
-87 -624 -240 -855 -438 -299 -258 -493 -581 -567 -950 -62 -309 -50 -566 40
-814 l26 -74 -56 -198 c-206 -731 -453 -1213 -804 -1570 -129 -131 -242 -216
-375 -280 -123 -60 -202 -80 -321 -80 -177 0 -299 54 -441 195 -169 168 -270
358 -350 660 -55 212 -104 575 -104 779 l0 73 50 -25 c30 -15 90 -30 155 -40
304 -45 581 83 833 386 197 238 346 551 437 923 120 489 77 1027 -107 1336
-69 117 -217 252 -350 319 -122 61 -210 79 -403 78 -261 0 -427 -36 -640 -139
-146 -70 -265 -156 -400 -290 -142 -141 -235 -258 -330 -417 -254 -425 -414
-1032 -415 -1574 l0 -110 -124 -290 c-206 -483 -439 -954 -621 -1256 -198
-328 -427 -569 -650 -682 -80 -40 -207 -76 -271 -76 -100 0 -176 134 -248 440
-65 270 -130 769 -167 1263 l-11 158 83 82 c46 45 114 116 150 157 621 706
1389 2294 1658 3430 44 187 67 316 90 505 28 246 34 373 21 520 -32 375 -150
686 -375 984 -218 289 -547 467 -995 537 -135 21 -436 27 -530 10z m810 -546
c128 -36 273 -128 351 -222 170 -206 282 -512 309 -847 39 -485 -151 -1374
-470 -2201 -314 -813 -663 -1420 -1060 -1847 l-68 -73 -8 248 c-14 383 -9
3064 5 3322 40 710 134 1169 287 1402 77 115 169 188 294 230 74 25 252 19
360 -12z m3205 -3649 c49 -22 111 -89 137 -148 91 -206 48 -524 -116 -846
-198 -393 -487 -680 -770 -766 -116 -36 -110 -42 -103 109 21 415 140 895 299
1215 177 354 381 515 553 436z"/>
<path d="M5670 19218 c-103 -58 -291 -265 -439 -483 -216 -317 -437 -804 -624
-1376 l-51 -155 -85 -13 c-355 -55 -734 -195 -877 -325 -85 -76 -108 -132
-102 -241 10 -147 92 -318 192 -399 122 -100 298 -138 452 -100 36 9 67 15 69
13 4 -4 -293 -970 -300 -978 -2 -2 -46 -12 -97 -22 -345 -71 -739 -201 -905
-301 -81 -48 -161 -124 -189 -179 -30 -61 -32 -145 -5 -251 55 -213 184 -346
387 -398 113 -29 172 -26 360 21 90 23 166 40 168 38 3 -2 -15 -76 -39 -164
-131 -476 -307 -1295 -350 -1620 -41 -312 2 -496 147 -630 116 -108 431 -225
602 -225 42 0 294 63 307 77 3 4 148 585 320 1291 173 706 316 1287 319 1292
4 7 1320 -8 1328 -15 2 -1 -20 -92 -47 -201 -67 -266 -189 -798 -245 -1064
-93 -443 -122 -665 -113 -859 13 -264 80 -400 231 -474 118 -58 197 -59 361
-5 l100 33 307 1239 c170 682 309 1240 311 1241 1 1 123 -8 271 -19 224 -16
282 -18 350 -8 138 20 242 83 315 192 145 217 125 474 -50 649 -101 102 -301
221 -474 284 -38 14 -77 28 -87 32 -15 6 -14 14 8 93 14 48 56 210 94 359 60
238 162 549 187 574 5 5 102 -7 217 -26 515 -86 682 -73 803 58 93 100 137
239 137 432 0 112 -3 138 -22 185 -77 190 -329 359 -690 460 -58 17 -107 32
-109 34 -3 2 2 15 11 28 8 12 106 308 217 657 l203 633 -21 87 c-50 201 -125
356 -222 456 -68 70 -127 98 -214 103 l-69 4 -52 -53 c-54 -56 -132 -183 -186
-304 -101 -224 -321 -784 -506 -1285 l-82 -225 -667 -3 c-563 -2 -666 0 -662
12 3 7 89 283 191 614 l185 600 -23 93 c-104 419 -335 638 -546 517z m1207
-3012 c2 -2 -236 -850 -263 -938 -5 -17 -47 -18 -705 -18 -384 0 -699 3 -699
7 0 3 22 74 49 157 125 383 211 701 211 786 l0 22 703 -8 c386 -3 703 -7 704
-8z"/>
</g>
</svg>
